<svg id="visual" viewBox="0 0 900 600" width="900" height="600" xmlns="http://www.w3.org/2000/svg" xmlns:xlink="http://www.w3.org/1999/xlink" version="1.1"><rect x="0" y="0" width="900" height="600" fill="#162a4a"></rect><defs><linearGradient id="grad1_0" x1="33.3%" y1="0%" x2="100%" y2="100%"><stop offset="20%" stop-color="#162a4a" stop-opacity="1"></stop><stop offset="80%" stop-color="#162a4a" stop-opacity="1"></stop></linearGradient></defs><defs><linearGradient id="grad2_0" x1="0%" y1="0%" x2="66.7%" y2="100%"><stop offset="20%" stop-color="#162a4a" stop-opacity="1"></stop><stop offset="80%" stop-color="#162a4a" stop-opacity="1"></stop></linearGradient></defs><g transform="translate(900, 0)"><path d="M0 216.3C-20.7 205.4 -41.3 194.5 -60.3 185.5C-79.2 176.4 -96.3 169.1 -117 161C-137.6 152.9 -161.7 143.8 -175 127.2C-188.3 110.5 -190.8 86.1 -195.9 63.7C-201 41.2 -208.7 20.6 -216.3 0L0 0Z" fill="#FBAE3C"></path></g><g transform="translate(0, 600)"><path d="M0 -216.3C20.4 -207.4 40.7 -198.4 62.7 -193.1C84.8 -187.7 108.4 -185.9 127.2 -175C145.9 -164.1 159.6 -144.2 171.5 -124.6C183.4 -105.1 193.5 -85.9 200.7 -65.2C207.8 -44.5 212.1 -22.3 216.3 0L0 0Z" fill="#FBAE3C"></path></g></svg>